<svg preserveAspectRatio="xMidYMid meet" data-bbox="10 40 180 120" viewBox="10 40 180 120" height="200" width="200" xmlns="http://www.w3.org/2000/svg" data-type="color" role="presentation" aria-hidden="true" aria-label="">
    <g>
        <path d="M174.915 101.614L190 89.07l-5.773-6.826-14.899 12.36a143.829 143.829 0 0 0-12.571-12.821c-.279-.184-.466-.461-.745-.646l12.85-15.219-6.891-5.719-12.944 15.311c-5.028-3.782-10.15-7.01-15.365-9.685l8.101-17.986-8.195-3.597-8.474 17.894c-6.984-2.675-15.085-4.243-21.604-4.796V40h-9.219v17.525c-7.45.461-13.409 2.121-20.486 4.796l-7.729-17.894-8.008 3.597 8.195 17.986c-5.215 2.675-10.336 5.903-15.365 9.685L37.936 60.384l-6.798 5.719 12.85 15.127c-.279.184-.466.461-.745.646a143.829 143.829 0 0 0-12.571 12.821l-14.899-12.36L10 89.162l15.085 12.544c-2.049 2.675-3.166 4.427-3.259 4.612l-1.583 2.398 1.583 2.398c.279.461 8.101 12.36 21.417 24.351C61.216 151.514 80.864 160 100.047 160s38.831-8.486 56.803-24.535c13.409-11.991 21.138-23.797 21.417-24.351l1.583-2.398-1.583-2.398c-.093-.276-1.304-2.029-3.352-4.704zm-74.465 49.439c-35.216 0-61.582-33.113-68.312-42.429 6.73-9.316 33.188-42.429 68.312-42.429 35.216 0 61.582 33.113 68.312 42.429-6.73 9.316-33.188 42.429-68.312 42.429z" fill="#C1272D" data-color="1"></path>
        <path d="M100.45 90.546c-9.956 0-18.069 8.117-18.069 18.078s8.113 18.078 18.069 18.078 18.069-8.117 18.069-18.078c0-9.961-8.113-18.078-18.069-18.078zm0 27.302c-5.07 0-9.219-4.151-9.219-9.224s4.148-9.224 9.219-9.224c5.07 0 9.219 4.151 9.219 9.224s-4.149 9.224-9.219 9.224z" fill="#C1272D" data-color="1"></path>
        <path d="M100.45 74.773c-18.622 0-33.833 15.219-33.833 33.851s15.211 33.851 33.833 33.851 33.833-15.219 33.833-33.851-15.211-33.851-33.833-33.851zm0 58.847c-13.736 0-24.983-11.253-24.983-24.996s11.247-24.996 24.983-24.996 24.983 11.253 24.983 24.996-11.247 24.996-24.983 24.996z" fill="#C1272D" data-color="1"></path>
    </g>
</svg>